<?xml version="1.0" encoding="utf-8" ?>
<svg baseProfile="full" height="100%" version="1.1" viewBox="-432.0,-432.0,864.0,864.0" width="100%" xmlns="http://www.w3.org/2000/svg" xmlns:ev="http://www.w3.org/2001/xml-events" xmlns:xlink="http://www.w3.org/1999/xlink">
  <defs>
    <style type="text/css">
<![CDATA[.triangle { fill: #b13136; stroke: none; }
.circle0 { fill: #EEEEEE; stroke: #CCCCCC; stroke-width: 3.0; }
.circle1 { fill: none; stroke: #b13136; stroke-width: 9.0; }
.circle2 { fill: none; stroke: #CCCCCC; stroke-width: 9.0; }
.circle3 { fill: none; stroke: #CCCCCC; stroke-width: 3.0; }
.line { fill: none; stroke: #CCCCCC; stroke-width: 3.0; }
.line_deg { fill: none; stroke: #CCCCCC; stroke-width: 1.0; }
.line_deg_thick { fill: none; stroke: #CCCCCC; stroke-width: 3.0; }
.text_large { font-family: serif; fill: white; text-anchor: middle; dominant-baseline: baseline; font-size: 61.550526122140525px; }
.text_small { font-family: serif; fill: white; text-anchor: middle; dominant-baseline: baseline; font-size: 43.96466151581466px; }
]]>    </style>
    <symbol id="small_triangle" viewBox="-30.16503278136067,0,60.33006556272134,52.2473693892974">
      <polygon class="triangle" points="-30.16503278136067,0 30.16503278136067,0 0,52.2473693892974"/>
    </symbol>
    <symbol id="large_triangle" viewBox="-60.03955980715254,0,120.07911961430509,103.99156805005846">
      <polygon class="triangle" points="-60.03955980715254,0 60.03955980715254,0 0,103.99156805005846"/>
    </symbol>
    <symbol id="diamond" viewBox="-30.16503278136067,-52.2473693892974,60.33006556272134,104.4947387785948">
      <polygon class="triangle" points="-30.16503278136067,0 0,-52.2473693892974 30.16503278136067,0 0,52.2473693892974"/>
    </symbol>
  </defs>
  <g transform="translate(0, 0)">
    <line class="line" transform="rotate(0.0)" x1="0" x2="0" y1="0" y2="255.7568465856734"/>
    <line class="line" transform="rotate(11.25)" x1="0" x2="0" y1="0" y2="255.7568465856734"/>
    <line class="line" transform="rotate(22.5)" x1="0" x2="0" y1="0" y2="255.7568465856734"/>
    <line class="line" transform="rotate(33.75)" x1="0" x2="0" y1="0" y2="255.7568465856734"/>
    <line class="line" transform="rotate(45.0)" x1="0" x2="0" y1="0" y2="255.7568465856734"/>
    <line class="line" transform="rotate(56.25)" x1="0" x2="0" y1="0" y2="255.7568465856734"/>
    <line class="line" transform="rotate(67.5)" x1="0" x2="0" y1="0" y2="255.7568465856734"/>
    <line class="line" transform="rotate(78.75)" x1="0" x2="0" y1="0" y2="255.7568465856734"/>
    <line class="line" transform="rotate(90.0)" x1="0" x2="0" y1="0" y2="255.7568465856734"/>
    <line class="line" transform="rotate(101.25)" x1="0" x2="0" y1="0" y2="255.7568465856734"/>
    <line class="line" transform="rotate(112.5)" x1="0" x2="0" y1="0" y2="255.7568465856734"/>
    <line class="line" transform="rotate(123.75)" x1="0" x2="0" y1="0" y2="255.7568465856734"/>
    <line class="line" transform="rotate(135.0)" x1="0" x2="0" y1="0" y2="255.7568465856734"/>
    <line class="line" transform="rotate(146.25)" x1="0" x2="0" y1="0" y2="255.7568465856734"/>
    <line class="line" transform="rotate(157.5)" x1="0" x2="0" y1="0" y2="255.7568465856734"/>
    <line class="line" transform="rotate(168.75)" x1="0" x2="0" y1="0" y2="255.7568465856734"/>
    <line class="line" transform="rotate(180.0)" x1="0" x2="0" y1="0" y2="255.7568465856734"/>
    <line class="line" transform="rotate(191.25)" x1="0" x2="0" y1="0" y2="255.7568465856734"/>
    <line class="line" transform="rotate(202.5)" x1="0" x2="0" y1="0" y2="255.7568465856734"/>
    <line class="line" transform="rotate(213.75)" x1="0" x2="0" y1="0" y2="255.7568465856734"/>
    <line class="line" transform="rotate(225.0)" x1="0" x2="0" y1="0" y2="255.7568465856734"/>
    <line class="line" transform="rotate(236.25)" x1="0" x2="0" y1="0" y2="255.7568465856734"/>
    <line class="line" transform="rotate(247.5)" x1="0" x2="0" y1="0" y2="255.7568465856734"/>
    <line class="line" transform="rotate(258.75)" x1="0" x2="0" y1="0" y2="255.7568465856734"/>
    <line class="line" transform="rotate(270.0)" x1="0" x2="0" y1="0" y2="255.7568465856734"/>
    <line class="line" transform="rotate(281.25)" x1="0" x2="0" y1="0" y2="255.7568465856734"/>
    <line class="line" transform="rotate(292.5)" x1="0" x2="0" y1="0" y2="255.7568465856734"/>
    <line class="line" transform="rotate(303.75)" x1="0" x2="0" y1="0" y2="255.7568465856734"/>
    <line class="line" transform="rotate(315.0)" x1="0" x2="0" y1="0" y2="255.7568465856734"/>
    <line class="line" transform="rotate(326.25)" x1="0" x2="0" y1="0" y2="255.7568465856734"/>
    <line class="line" transform="rotate(337.5)" x1="0" x2="0" y1="0" y2="255.7568465856734"/>
    <line class="line" transform="rotate(348.75)" x1="0" x2="0" y1="0" y2="255.7568465856734"/>
    <circle class="circle0" cx="0" cy="0" r="36.0"/>
    <circle class="circle1" cx="0" cy="0" r="255.7568465856734"/>
    <circle class="circle2" cx="0" cy="0" r="268.5446889149571"/>
    <circle class="circle2" cx="0" cy="0" r="307.7526306107026"/>
    <circle class="circle2" cx="0" cy="0" r="359.7484146357319"/>
    <circle class="circle3" cx="0" cy="0" r="204.60547726853872"/>
  </g>
  <g transform="translate(0, 0) rotate(0)">
    <use height="52.2473693892974" transform="rotate(11.25)" width="60.33006556272134" x="-30.16503278136067" xlink:href="#small_triangle" y="307.7526306107026"/>
    <use height="52.2473693892974" transform="rotate(33.75)" width="60.33006556272134" x="-30.16503278136067" xlink:href="#small_triangle" y="307.7526306107026"/>
    <use height="52.2473693892974" transform="rotate(56.25)" width="60.33006556272134" x="-30.16503278136067" xlink:href="#small_triangle" y="307.7526306107026"/>
    <use height="52.2473693892974" transform="rotate(78.75)" width="60.33006556272134" x="-30.16503278136067" xlink:href="#small_triangle" y="307.7526306107026"/>
    <use height="52.2473693892974" transform="rotate(101.25)" width="60.33006556272134" x="-30.16503278136067" xlink:href="#small_triangle" y="307.7526306107026"/>
    <use height="52.2473693892974" transform="rotate(123.75)" width="60.33006556272134" x="-30.16503278136067" xlink:href="#small_triangle" y="307.7526306107026"/>
    <use height="52.2473693892974" transform="rotate(146.25)" width="60.33006556272134" x="-30.16503278136067" xlink:href="#small_triangle" y="307.7526306107026"/>
    <use height="52.2473693892974" transform="rotate(168.75)" width="60.33006556272134" x="-30.16503278136067" xlink:href="#small_triangle" y="307.7526306107026"/>
    <use height="52.2473693892974" transform="rotate(191.25)" width="60.33006556272134" x="-30.16503278136067" xlink:href="#small_triangle" y="307.7526306107026"/>
    <use height="52.2473693892974" transform="rotate(213.75)" width="60.33006556272134" x="-30.16503278136067" xlink:href="#small_triangle" y="307.7526306107026"/>
    <use height="52.2473693892974" transform="rotate(236.25)" width="60.33006556272134" x="-30.16503278136067" xlink:href="#small_triangle" y="307.7526306107026"/>
    <use height="52.2473693892974" transform="rotate(258.75)" width="60.33006556272134" x="-30.16503278136067" xlink:href="#small_triangle" y="307.7526306107026"/>
    <use height="52.2473693892974" transform="rotate(281.25)" width="60.33006556272134" x="-30.16503278136067" xlink:href="#small_triangle" y="307.7526306107026"/>
    <use height="52.2473693892974" transform="rotate(303.75)" width="60.33006556272134" x="-30.16503278136067" xlink:href="#small_triangle" y="307.7526306107026"/>
    <use height="52.2473693892974" transform="rotate(326.25)" width="60.33006556272134" x="-30.16503278136067" xlink:href="#small_triangle" y="307.7526306107026"/>
    <use height="52.2473693892974" transform="rotate(348.75)" width="60.33006556272134" x="-30.16503278136067" xlink:href="#small_triangle" y="307.7526306107026"/>
    <use height="103.99156805005846" transform="rotate(0.0)" width="120.07911961430509" x="-60.03955980715254" xlink:href="#large_triangle" y="255.7568465856734"/>
    <use height="103.99156805005846" transform="rotate(45.0)" width="120.07911961430509" x="-60.03955980715254" xlink:href="#large_triangle" y="255.7568465856734"/>
    <use height="103.99156805005846" transform="rotate(90.0)" width="120.07911961430509" x="-60.03955980715254" xlink:href="#large_triangle" y="255.7568465856734"/>
    <use height="103.99156805005846" transform="rotate(135.0)" width="120.07911961430509" x="-60.03955980715254" xlink:href="#large_triangle" y="255.7568465856734"/>
    <use height="103.99156805005846" transform="rotate(180.0)" width="120.07911961430509" x="-60.03955980715254" xlink:href="#large_triangle" y="255.7568465856734"/>
    <use height="103.99156805005846" transform="rotate(225.0)" width="120.07911961430509" x="-60.03955980715254" xlink:href="#large_triangle" y="255.7568465856734"/>
    <use height="103.99156805005846" transform="rotate(270.0)" width="120.07911961430509" x="-60.03955980715254" xlink:href="#large_triangle" y="255.7568465856734"/>
    <use height="103.99156805005846" transform="rotate(315.0)" width="120.07911961430509" x="-60.03955980715254" xlink:href="#large_triangle" y="255.7568465856734"/>
    <use height="104.4947387785948" transform="rotate(22.5)" width="60.33006556272134" x="-30.16503278136067" xlink:href="#diamond" y="255.50526122140522"/>
    <use height="104.4947387785948" transform="rotate(67.5)" width="60.33006556272134" x="-30.16503278136067" xlink:href="#diamond" y="255.50526122140522"/>
    <use height="104.4947387785948" transform="rotate(112.5)" width="60.33006556272134" x="-30.16503278136067" xlink:href="#diamond" y="255.50526122140522"/>
    <use height="104.4947387785948" transform="rotate(157.5)" width="60.33006556272134" x="-30.16503278136067" xlink:href="#diamond" y="255.50526122140522"/>
    <use height="104.4947387785948" transform="rotate(202.5)" width="60.33006556272134" x="-30.16503278136067" xlink:href="#diamond" y="255.50526122140522"/>
    <use height="104.4947387785948" transform="rotate(247.5)" width="60.33006556272134" x="-30.16503278136067" xlink:href="#diamond" y="255.50526122140522"/>
    <use height="104.4947387785948" transform="rotate(292.5)" width="60.33006556272134" x="-30.16503278136067" xlink:href="#diamond" y="255.50526122140522"/>
    <use height="104.4947387785948" transform="rotate(337.5)" width="60.33006556272134" x="-30.16503278136067" xlink:href="#diamond" y="255.50526122140522"/>
  </g>
  <g transform="translate(0, 0) rotate(0)">
    <text class="text_large" transform="rotate(0.0) translate(0, -266.15600339067925)" x="0" y="0">N</text>
    <text class="text_small" transform="rotate(45.0) translate(0, -266.15600339067925)" x="0" y="0">NE</text>
    <text class="text_large" transform="rotate(90.0) translate(0, -266.15600339067925)" x="0" y="0">E</text>
    <text class="text_small" transform="rotate(135.0) translate(0, -266.15600339067925)" x="0" y="0">SE</text>
    <text class="text_large" transform="rotate(180.0) translate(0, -266.15600339067925)" x="0" y="0">S</text>
    <text class="text_small" transform="rotate(225.0) translate(0, -266.15600339067925)" x="0" y="0">SW</text>
    <text class="text_large" transform="rotate(270.0) translate(0, -266.15600339067925)" x="0" y="0">W</text>
    <text class="text_small" transform="rotate(315.0) translate(0, -266.15600339067925)" x="0" y="0">NW</text>
  </g>
  <g transform="translate(0, 0)">
    <line class="line_deg_thick" transform="rotate(0)" x1="0" x2="0" y1="360" y2="396.0"/>
    <line class="line_deg" transform="rotate(1)" x1="0" x2="0" y1="360" y2="396.0"/>
    <line class="line_deg" transform="rotate(2)" x1="0" x2="0" y1="360" y2="396.0"/>
    <line class="line_deg" transform="rotate(3)" x1="0" x2="0" y1="360" y2="396.0"/>
    <line class="line_deg" transform="rotate(4)" x1="0" x2="0" y1="360" y2="396.0"/>
    <line class="line_deg" transform="rotate(5)" x1="0" x2="0" y1="360" y2="396.0"/>
    <line class="line_deg" transform="rotate(6)" x1="0" x2="0" y1="360" y2="396.0"/>
    <line class="line_deg" transform="rotate(7)" x1="0" x2="0" y1="360" y2="396.0"/>
    <line class="line_deg" transform="rotate(8)" x1="0" x2="0" y1="360" y2="396.0"/>
    <line class="line_deg" transform="rotate(9)" x1="0" x2="0" y1="360" y2="396.0"/>
    <line class="line_deg_thick" transform="rotate(10)" x1="0" x2="0" y1="360" y2="396.0"/>
    <line class="line_deg" transform="rotate(11)" x1="0" x2="0" y1="360" y2="396.0"/>
    <line class="line_deg" transform="rotate(12)" x1="0" x2="0" y1="360" y2="396.0"/>
    <line class="line_deg" transform="rotate(13)" x1="0" x2="0" y1="360" y2="396.0"/>
    <line class="line_deg" transform="rotate(14)" x1="0" x2="0" y1="360" y2="396.0"/>
    <line class="line_deg" transform="rotate(15)" x1="0" x2="0" y1="360" y2="396.0"/>
    <line class="line_deg" transform="rotate(16)" x1="0" x2="0" y1="360" y2="396.0"/>
    <line class="line_deg" transform="rotate(17)" x1="0" x2="0" y1="360" y2="396.0"/>
    <line class="line_deg" transform="rotate(18)" x1="0" x2="0" y1="360" y2="396.0"/>
    <line class="line_deg" transform="rotate(19)" x1="0" x2="0" y1="360" y2="396.0"/>
    <line class="line_deg_thick" transform="rotate(20)" x1="0" x2="0" y1="360" y2="396.0"/>
    <line class="line_deg" transform="rotate(21)" x1="0" x2="0" y1="360" y2="396.0"/>
    <line class="line_deg" transform="rotate(22)" x1="0" x2="0" y1="360" y2="396.0"/>
    <line class="line_deg" transform="rotate(23)" x1="0" x2="0" y1="360" y2="396.0"/>
    <line class="line_deg" transform="rotate(24)" x1="0" x2="0" y1="360" y2="396.0"/>
    <line class="line_deg" transform="rotate(25)" x1="0" x2="0" y1="360" y2="396.0"/>
    <line class="line_deg" transform="rotate(26)" x1="0" x2="0" y1="360" y2="396.0"/>
    <line class="line_deg" transform="rotate(27)" x1="0" x2="0" y1="360" y2="396.0"/>
    <line class="line_deg" transform="rotate(28)" x1="0" x2="0" y1="360" y2="396.0"/>
    <line class="line_deg" transform="rotate(29)" x1="0" x2="0" y1="360" y2="396.0"/>
    <line class="line_deg_thick" transform="rotate(30)" x1="0" x2="0" y1="360" y2="396.0"/>
    <line class="line_deg" transform="rotate(31)" x1="0" x2="0" y1="360" y2="396.0"/>
    <line class="line_deg" transform="rotate(32)" x1="0" x2="0" y1="360" y2="396.0"/>
    <line class="line_deg" transform="rotate(33)" x1="0" x2="0" y1="360" y2="396.0"/>
    <line class="line_deg" transform="rotate(34)" x1="0" x2="0" y1="360" y2="396.0"/>
    <line class="line_deg" transform="rotate(35)" x1="0" x2="0" y1="360" y2="396.0"/>
    <line class="line_deg" transform="rotate(36)" x1="0" x2="0" y1="360" y2="396.0"/>
    <line class="line_deg" transform="rotate(37)" x1="0" x2="0" y1="360" y2="396.0"/>
    <line class="line_deg" transform="rotate(38)" x1="0" x2="0" y1="360" y2="396.0"/>
    <line class="line_deg" transform="rotate(39)" x1="0" x2="0" y1="360" y2="396.0"/>
    <line class="line_deg_thick" transform="rotate(40)" x1="0" x2="0" y1="360" y2="396.0"/>
    <line class="line_deg" transform="rotate(41)" x1="0" x2="0" y1="360" y2="396.0"/>
    <line class="line_deg" transform="rotate(42)" x1="0" x2="0" y1="360" y2="396.0"/>
    <line class="line_deg" transform="rotate(43)" x1="0" x2="0" y1="360" y2="396.0"/>
    <line class="line_deg" transform="rotate(44)" x1="0" x2="0" y1="360" y2="396.0"/>
    <line class="line_deg" transform="rotate(45)" x1="0" x2="0" y1="360" y2="396.0"/>
    <line class="line_deg" transform="rotate(46)" x1="0" x2="0" y1="360" y2="396.0"/>
    <line class="line_deg" transform="rotate(47)" x1="0" x2="0" y1="360" y2="396.0"/>
    <line class="line_deg" transform="rotate(48)" x1="0" x2="0" y1="360" y2="396.0"/>
    <line class="line_deg" transform="rotate(49)" x1="0" x2="0" y1="360" y2="396.0"/>
    <line class="line_deg_thick" transform="rotate(50)" x1="0" x2="0" y1="360" y2="396.0"/>
    <line class="line_deg" transform="rotate(51)" x1="0" x2="0" y1="360" y2="396.0"/>
    <line class="line_deg" transform="rotate(52)" x1="0" x2="0" y1="360" y2="396.0"/>
    <line class="line_deg" transform="rotate(53)" x1="0" x2="0" y1="360" y2="396.0"/>
    <line class="line_deg" transform="rotate(54)" x1="0" x2="0" y1="360" y2="396.0"/>
    <line class="line_deg" transform="rotate(55)" x1="0" x2="0" y1="360" y2="396.0"/>
    <line class="line_deg" transform="rotate(56)" x1="0" x2="0" y1="360" y2="396.0"/>
    <line class="line_deg" transform="rotate(57)" x1="0" x2="0" y1="360" y2="396.0"/>
    <line class="line_deg" transform="rotate(58)" x1="0" x2="0" y1="360" y2="396.0"/>
    <line class="line_deg" transform="rotate(59)" x1="0" x2="0" y1="360" y2="396.0"/>
    <line class="line_deg_thick" transform="rotate(60)" x1="0" x2="0" y1="360" y2="396.0"/>
    <line class="line_deg" transform="rotate(61)" x1="0" x2="0" y1="360" y2="396.0"/>
    <line class="line_deg" transform="rotate(62)" x1="0" x2="0" y1="360" y2="396.0"/>
    <line class="line_deg" transform="rotate(63)" x1="0" x2="0" y1="360" y2="396.0"/>
    <line class="line_deg" transform="rotate(64)" x1="0" x2="0" y1="360" y2="396.0"/>
    <line class="line_deg" transform="rotate(65)" x1="0" x2="0" y1="360" y2="396.0"/>
    <line class="line_deg" transform="rotate(66)" x1="0" x2="0" y1="360" y2="396.0"/>
    <line class="line_deg" transform="rotate(67)" x1="0" x2="0" y1="360" y2="396.0"/>
    <line class="line_deg" transform="rotate(68)" x1="0" x2="0" y1="360" y2="396.0"/>
    <line class="line_deg" transform="rotate(69)" x1="0" x2="0" y1="360" y2="396.0"/>
    <line class="line_deg_thick" transform="rotate(70)" x1="0" x2="0" y1="360" y2="396.0"/>
    <line class="line_deg" transform="rotate(71)" x1="0" x2="0" y1="360" y2="396.0"/>
    <line class="line_deg" transform="rotate(72)" x1="0" x2="0" y1="360" y2="396.0"/>
    <line class="line_deg" transform="rotate(73)" x1="0" x2="0" y1="360" y2="396.0"/>
    <line class="line_deg" transform="rotate(74)" x1="0" x2="0" y1="360" y2="396.0"/>
    <line class="line_deg" transform="rotate(75)" x1="0" x2="0" y1="360" y2="396.0"/>
    <line class="line_deg" transform="rotate(76)" x1="0" x2="0" y1="360" y2="396.0"/>
    <line class="line_deg" transform="rotate(77)" x1="0" x2="0" y1="360" y2="396.0"/>
    <line class="line_deg" transform="rotate(78)" x1="0" x2="0" y1="360" y2="396.0"/>
    <line class="line_deg" transform="rotate(79)" x1="0" x2="0" y1="360" y2="396.0"/>
    <line class="line_deg_thick" transform="rotate(80)" x1="0" x2="0" y1="360" y2="396.0"/>
    <line class="line_deg" transform="rotate(81)" x1="0" x2="0" y1="360" y2="396.0"/>
    <line class="line_deg" transform="rotate(82)" x1="0" x2="0" y1="360" y2="396.0"/>
    <line class="line_deg" transform="rotate(83)" x1="0" x2="0" y1="360" y2="396.0"/>
    <line class="line_deg" transform="rotate(84)" x1="0" x2="0" y1="360" y2="396.0"/>
    <line class="line_deg" transform="rotate(85)" x1="0" x2="0" y1="360" y2="396.0"/>
    <line class="line_deg" transform="rotate(86)" x1="0" x2="0" y1="360" y2="396.0"/>
    <line class="line_deg" transform="rotate(87)" x1="0" x2="0" y1="360" y2="396.0"/>
    <line class="line_deg" transform="rotate(88)" x1="0" x2="0" y1="360" y2="396.0"/>
    <line class="line_deg" transform="rotate(89)" x1="0" x2="0" y1="360" y2="396.0"/>
    <line class="line_deg_thick" transform="rotate(90)" x1="0" x2="0" y1="360" y2="396.0"/>
    <line class="line_deg" transform="rotate(91)" x1="0" x2="0" y1="360" y2="396.0"/>
    <line class="line_deg" transform="rotate(92)" x1="0" x2="0" y1="360" y2="396.0"/>
    <line class="line_deg" transform="rotate(93)" x1="0" x2="0" y1="360" y2="396.0"/>
    <line class="line_deg" transform="rotate(94)" x1="0" x2="0" y1="360" y2="396.0"/>
    <line class="line_deg" transform="rotate(95)" x1="0" x2="0" y1="360" y2="396.0"/>
    <line class="line_deg" transform="rotate(96)" x1="0" x2="0" y1="360" y2="396.0"/>
    <line class="line_deg" transform="rotate(97)" x1="0" x2="0" y1="360" y2="396.0"/>
    <line class="line_deg" transform="rotate(98)" x1="0" x2="0" y1="360" y2="396.0"/>
    <line class="line_deg" transform="rotate(99)" x1="0" x2="0" y1="360" y2="396.0"/>
    <line class="line_deg_thick" transform="rotate(100)" x1="0" x2="0" y1="360" y2="396.0"/>
    <line class="line_deg" transform="rotate(101)" x1="0" x2="0" y1="360" y2="396.0"/>
    <line class="line_deg" transform="rotate(102)" x1="0" x2="0" y1="360" y2="396.0"/>
    <line class="line_deg" transform="rotate(103)" x1="0" x2="0" y1="360" y2="396.0"/>
    <line class="line_deg" transform="rotate(104)" x1="0" x2="0" y1="360" y2="396.0"/>
    <line class="line_deg" transform="rotate(105)" x1="0" x2="0" y1="360" y2="396.0"/>
    <line class="line_deg" transform="rotate(106)" x1="0" x2="0" y1="360" y2="396.0"/>
    <line class="line_deg" transform="rotate(107)" x1="0" x2="0" y1="360" y2="396.0"/>
    <line class="line_deg" transform="rotate(108)" x1="0" x2="0" y1="360" y2="396.0"/>
    <line class="line_deg" transform="rotate(109)" x1="0" x2="0" y1="360" y2="396.0"/>
    <line class="line_deg_thick" transform="rotate(110)" x1="0" x2="0" y1="360" y2="396.0"/>
    <line class="line_deg" transform="rotate(111)" x1="0" x2="0" y1="360" y2="396.0"/>
    <line class="line_deg" transform="rotate(112)" x1="0" x2="0" y1="360" y2="396.0"/>
    <line class="line_deg" transform="rotate(113)" x1="0" x2="0" y1="360" y2="396.0"/>
    <line class="line_deg" transform="rotate(114)" x1="0" x2="0" y1="360" y2="396.0"/>
    <line class="line_deg" transform="rotate(115)" x1="0" x2="0" y1="360" y2="396.0"/>
    <line class="line_deg" transform="rotate(116)" x1="0" x2="0" y1="360" y2="396.0"/>
    <line class="line_deg" transform="rotate(117)" x1="0" x2="0" y1="360" y2="396.0"/>
    <line class="line_deg" transform="rotate(118)" x1="0" x2="0" y1="360" y2="396.0"/>
    <line class="line_deg" transform="rotate(119)" x1="0" x2="0" y1="360" y2="396.0"/>
    <line class="line_deg_thick" transform="rotate(120)" x1="0" x2="0" y1="360" y2="396.0"/>
    <line class="line_deg" transform="rotate(121)" x1="0" x2="0" y1="360" y2="396.0"/>
    <line class="line_deg" transform="rotate(122)" x1="0" x2="0" y1="360" y2="396.0"/>
    <line class="line_deg" transform="rotate(123)" x1="0" x2="0" y1="360" y2="396.0"/>
    <line class="line_deg" transform="rotate(124)" x1="0" x2="0" y1="360" y2="396.0"/>
    <line class="line_deg" transform="rotate(125)" x1="0" x2="0" y1="360" y2="396.0"/>
    <line class="line_deg" transform="rotate(126)" x1="0" x2="0" y1="360" y2="396.0"/>
    <line class="line_deg" transform="rotate(127)" x1="0" x2="0" y1="360" y2="396.0"/>
    <line class="line_deg" transform="rotate(128)" x1="0" x2="0" y1="360" y2="396.0"/>
    <line class="line_deg" transform="rotate(129)" x1="0" x2="0" y1="360" y2="396.0"/>
    <line class="line_deg_thick" transform="rotate(130)" x1="0" x2="0" y1="360" y2="396.0"/>
    <line class="line_deg" transform="rotate(131)" x1="0" x2="0" y1="360" y2="396.0"/>
    <line class="line_deg" transform="rotate(132)" x1="0" x2="0" y1="360" y2="396.0"/>
    <line class="line_deg" transform="rotate(133)" x1="0" x2="0" y1="360" y2="396.0"/>
    <line class="line_deg" transform="rotate(134)" x1="0" x2="0" y1="360" y2="396.0"/>
    <line class="line_deg" transform="rotate(135)" x1="0" x2="0" y1="360" y2="396.0"/>
    <line class="line_deg" transform="rotate(136)" x1="0" x2="0" y1="360" y2="396.0"/>
    <line class="line_deg" transform="rotate(137)" x1="0" x2="0" y1="360" y2="396.0"/>
    <line class="line_deg" transform="rotate(138)" x1="0" x2="0" y1="360" y2="396.0"/>
    <line class="line_deg" transform="rotate(139)" x1="0" x2="0" y1="360" y2="396.0"/>
    <line class="line_deg_thick" transform="rotate(140)" x1="0" x2="0" y1="360" y2="396.0"/>
    <line class="line_deg" transform="rotate(141)" x1="0" x2="0" y1="360" y2="396.0"/>
    <line class="line_deg" transform="rotate(142)" x1="0" x2="0" y1="360" y2="396.0"/>
    <line class="line_deg" transform="rotate(143)" x1="0" x2="0" y1="360" y2="396.0"/>
    <line class="line_deg" transform="rotate(144)" x1="0" x2="0" y1="360" y2="396.0"/>
    <line class="line_deg" transform="rotate(145)" x1="0" x2="0" y1="360" y2="396.0"/>
    <line class="line_deg" transform="rotate(146)" x1="0" x2="0" y1="360" y2="396.0"/>
    <line class="line_deg" transform="rotate(147)" x1="0" x2="0" y1="360" y2="396.0"/>
    <line class="line_deg" transform="rotate(148)" x1="0" x2="0" y1="360" y2="396.0"/>
    <line class="line_deg" transform="rotate(149)" x1="0" x2="0" y1="360" y2="396.0"/>
    <line class="line_deg_thick" transform="rotate(150)" x1="0" x2="0" y1="360" y2="396.0"/>
    <line class="line_deg" transform="rotate(151)" x1="0" x2="0" y1="360" y2="396.0"/>
    <line class="line_deg" transform="rotate(152)" x1="0" x2="0" y1="360" y2="396.0"/>
    <line class="line_deg" transform="rotate(153)" x1="0" x2="0" y1="360" y2="396.0"/>
    <line class="line_deg" transform="rotate(154)" x1="0" x2="0" y1="360" y2="396.0"/>
    <line class="line_deg" transform="rotate(155)" x1="0" x2="0" y1="360" y2="396.0"/>
    <line class="line_deg" transform="rotate(156)" x1="0" x2="0" y1="360" y2="396.0"/>
    <line class="line_deg" transform="rotate(157)" x1="0" x2="0" y1="360" y2="396.0"/>
    <line class="line_deg" transform="rotate(158)" x1="0" x2="0" y1="360" y2="396.0"/>
    <line class="line_deg" transform="rotate(159)" x1="0" x2="0" y1="360" y2="396.0"/>
    <line class="line_deg_thick" transform="rotate(160)" x1="0" x2="0" y1="360" y2="396.0"/>
    <line class="line_deg" transform="rotate(161)" x1="0" x2="0" y1="360" y2="396.0"/>
    <line class="line_deg" transform="rotate(162)" x1="0" x2="0" y1="360" y2="396.0"/>
    <line class="line_deg" transform="rotate(163)" x1="0" x2="0" y1="360" y2="396.0"/>
    <line class="line_deg" transform="rotate(164)" x1="0" x2="0" y1="360" y2="396.0"/>
    <line class="line_deg" transform="rotate(165)" x1="0" x2="0" y1="360" y2="396.0"/>
    <line class="line_deg" transform="rotate(166)" x1="0" x2="0" y1="360" y2="396.0"/>
    <line class="line_deg" transform="rotate(167)" x1="0" x2="0" y1="360" y2="396.0"/>
    <line class="line_deg" transform="rotate(168)" x1="0" x2="0" y1="360" y2="396.0"/>
    <line class="line_deg" transform="rotate(169)" x1="0" x2="0" y1="360" y2="396.0"/>
    <line class="line_deg_thick" transform="rotate(170)" x1="0" x2="0" y1="360" y2="396.0"/>
    <line class="line_deg" transform="rotate(171)" x1="0" x2="0" y1="360" y2="396.0"/>
    <line class="line_deg" transform="rotate(172)" x1="0" x2="0" y1="360" y2="396.0"/>
    <line class="line_deg" transform="rotate(173)" x1="0" x2="0" y1="360" y2="396.0"/>
    <line class="line_deg" transform="rotate(174)" x1="0" x2="0" y1="360" y2="396.0"/>
    <line class="line_deg" transform="rotate(175)" x1="0" x2="0" y1="360" y2="396.0"/>
    <line class="line_deg" transform="rotate(176)" x1="0" x2="0" y1="360" y2="396.0"/>
    <line class="line_deg" transform="rotate(177)" x1="0" x2="0" y1="360" y2="396.0"/>
    <line class="line_deg" transform="rotate(178)" x1="0" x2="0" y1="360" y2="396.0"/>
    <line class="line_deg" transform="rotate(179)" x1="0" x2="0" y1="360" y2="396.0"/>
    <line class="line_deg_thick" transform="rotate(180)" x1="0" x2="0" y1="360" y2="396.0"/>
    <line class="line_deg" transform="rotate(181)" x1="0" x2="0" y1="360" y2="396.0"/>
    <line class="line_deg" transform="rotate(182)" x1="0" x2="0" y1="360" y2="396.0"/>
    <line class="line_deg" transform="rotate(183)" x1="0" x2="0" y1="360" y2="396.0"/>
    <line class="line_deg" transform="rotate(184)" x1="0" x2="0" y1="360" y2="396.0"/>
    <line class="line_deg" transform="rotate(185)" x1="0" x2="0" y1="360" y2="396.0"/>
    <line class="line_deg" transform="rotate(186)" x1="0" x2="0" y1="360" y2="396.0"/>
    <line class="line_deg" transform="rotate(187)" x1="0" x2="0" y1="360" y2="396.0"/>
    <line class="line_deg" transform="rotate(188)" x1="0" x2="0" y1="360" y2="396.0"/>
    <line class="line_deg" transform="rotate(189)" x1="0" x2="0" y1="360" y2="396.0"/>
    <line class="line_deg_thick" transform="rotate(190)" x1="0" x2="0" y1="360" y2="396.0"/>
    <line class="line_deg" transform="rotate(191)" x1="0" x2="0" y1="360" y2="396.0"/>
    <line class="line_deg" transform="rotate(192)" x1="0" x2="0" y1="360" y2="396.0"/>
    <line class="line_deg" transform="rotate(193)" x1="0" x2="0" y1="360" y2="396.0"/>
    <line class="line_deg" transform="rotate(194)" x1="0" x2="0" y1="360" y2="396.0"/>
    <line class="line_deg" transform="rotate(195)" x1="0" x2="0" y1="360" y2="396.0"/>
    <line class="line_deg" transform="rotate(196)" x1="0" x2="0" y1="360" y2="396.0"/>
    <line class="line_deg" transform="rotate(197)" x1="0" x2="0" y1="360" y2="396.0"/>
    <line class="line_deg" transform="rotate(198)" x1="0" x2="0" y1="360" y2="396.0"/>
    <line class="line_deg" transform="rotate(199)" x1="0" x2="0" y1="360" y2="396.0"/>
    <line class="line_deg_thick" transform="rotate(200)" x1="0" x2="0" y1="360" y2="396.0"/>
    <line class="line_deg" transform="rotate(201)" x1="0" x2="0" y1="360" y2="396.0"/>
    <line class="line_deg" transform="rotate(202)" x1="0" x2="0" y1="360" y2="396.0"/>
    <line class="line_deg" transform="rotate(203)" x1="0" x2="0" y1="360" y2="396.0"/>
    <line class="line_deg" transform="rotate(204)" x1="0" x2="0" y1="360" y2="396.0"/>
    <line class="line_deg" transform="rotate(205)" x1="0" x2="0" y1="360" y2="396.0"/>
    <line class="line_deg" transform="rotate(206)" x1="0" x2="0" y1="360" y2="396.0"/>
    <line class="line_deg" transform="rotate(207)" x1="0" x2="0" y1="360" y2="396.0"/>
    <line class="line_deg" transform="rotate(208)" x1="0" x2="0" y1="360" y2="396.0"/>
    <line class="line_deg" transform="rotate(209)" x1="0" x2="0" y1="360" y2="396.0"/>
    <line class="line_deg_thick" transform="rotate(210)" x1="0" x2="0" y1="360" y2="396.0"/>
    <line class="line_deg" transform="rotate(211)" x1="0" x2="0" y1="360" y2="396.0"/>
    <line class="line_deg" transform="rotate(212)" x1="0" x2="0" y1="360" y2="396.0"/>
    <line class="line_deg" transform="rotate(213)" x1="0" x2="0" y1="360" y2="396.0"/>
    <line class="line_deg" transform="rotate(214)" x1="0" x2="0" y1="360" y2="396.0"/>
    <line class="line_deg" transform="rotate(215)" x1="0" x2="0" y1="360" y2="396.0"/>
    <line class="line_deg" transform="rotate(216)" x1="0" x2="0" y1="360" y2="396.0"/>
    <line class="line_deg" transform="rotate(217)" x1="0" x2="0" y1="360" y2="396.0"/>
    <line class="line_deg" transform="rotate(218)" x1="0" x2="0" y1="360" y2="396.0"/>
    <line class="line_deg" transform="rotate(219)" x1="0" x2="0" y1="360" y2="396.0"/>
    <line class="line_deg_thick" transform="rotate(220)" x1="0" x2="0" y1="360" y2="396.0"/>
    <line class="line_deg" transform="rotate(221)" x1="0" x2="0" y1="360" y2="396.0"/>
    <line class="line_deg" transform="rotate(222)" x1="0" x2="0" y1="360" y2="396.0"/>
    <line class="line_deg" transform="rotate(223)" x1="0" x2="0" y1="360" y2="396.0"/>
    <line class="line_deg" transform="rotate(224)" x1="0" x2="0" y1="360" y2="396.0"/>
    <line class="line_deg" transform="rotate(225)" x1="0" x2="0" y1="360" y2="396.0"/>
    <line class="line_deg" transform="rotate(226)" x1="0" x2="0" y1="360" y2="396.0"/>
    <line class="line_deg" transform="rotate(227)" x1="0" x2="0" y1="360" y2="396.0"/>
    <line class="line_deg" transform="rotate(228)" x1="0" x2="0" y1="360" y2="396.0"/>
    <line class="line_deg" transform="rotate(229)" x1="0" x2="0" y1="360" y2="396.0"/>
    <line class="line_deg_thick" transform="rotate(230)" x1="0" x2="0" y1="360" y2="396.0"/>
    <line class="line_deg" transform="rotate(231)" x1="0" x2="0" y1="360" y2="396.0"/>
    <line class="line_deg" transform="rotate(232)" x1="0" x2="0" y1="360" y2="396.0"/>
    <line class="line_deg" transform="rotate(233)" x1="0" x2="0" y1="360" y2="396.0"/>
    <line class="line_deg" transform="rotate(234)" x1="0" x2="0" y1="360" y2="396.0"/>
    <line class="line_deg" transform="rotate(235)" x1="0" x2="0" y1="360" y2="396.0"/>
    <line class="line_deg" transform="rotate(236)" x1="0" x2="0" y1="360" y2="396.0"/>
    <line class="line_deg" transform="rotate(237)" x1="0" x2="0" y1="360" y2="396.0"/>
    <line class="line_deg" transform="rotate(238)" x1="0" x2="0" y1="360" y2="396.0"/>
    <line class="line_deg" transform="rotate(239)" x1="0" x2="0" y1="360" y2="396.0"/>
    <line class="line_deg_thick" transform="rotate(240)" x1="0" x2="0" y1="360" y2="396.0"/>
    <line class="line_deg" transform="rotate(241)" x1="0" x2="0" y1="360" y2="396.0"/>
    <line class="line_deg" transform="rotate(242)" x1="0" x2="0" y1="360" y2="396.0"/>
    <line class="line_deg" transform="rotate(243)" x1="0" x2="0" y1="360" y2="396.0"/>
    <line class="line_deg" transform="rotate(244)" x1="0" x2="0" y1="360" y2="396.0"/>
    <line class="line_deg" transform="rotate(245)" x1="0" x2="0" y1="360" y2="396.0"/>
    <line class="line_deg" transform="rotate(246)" x1="0" x2="0" y1="360" y2="396.0"/>
    <line class="line_deg" transform="rotate(247)" x1="0" x2="0" y1="360" y2="396.0"/>
    <line class="line_deg" transform="rotate(248)" x1="0" x2="0" y1="360" y2="396.0"/>
    <line class="line_deg" transform="rotate(249)" x1="0" x2="0" y1="360" y2="396.0"/>
    <line class="line_deg_thick" transform="rotate(250)" x1="0" x2="0" y1="360" y2="396.0"/>
    <line class="line_deg" transform="rotate(251)" x1="0" x2="0" y1="360" y2="396.0"/>
    <line class="line_deg" transform="rotate(252)" x1="0" x2="0" y1="360" y2="396.0"/>
    <line class="line_deg" transform="rotate(253)" x1="0" x2="0" y1="360" y2="396.0"/>
    <line class="line_deg" transform="rotate(254)" x1="0" x2="0" y1="360" y2="396.0"/>
    <line class="line_deg" transform="rotate(255)" x1="0" x2="0" y1="360" y2="396.0"/>
    <line class="line_deg" transform="rotate(256)" x1="0" x2="0" y1="360" y2="396.0"/>
    <line class="line_deg" transform="rotate(257)" x1="0" x2="0" y1="360" y2="396.0"/>
    <line class="line_deg" transform="rotate(258)" x1="0" x2="0" y1="360" y2="396.0"/>
    <line class="line_deg" transform="rotate(259)" x1="0" x2="0" y1="360" y2="396.0"/>
    <line class="line_deg_thick" transform="rotate(260)" x1="0" x2="0" y1="360" y2="396.0"/>
    <line class="line_deg" transform="rotate(261)" x1="0" x2="0" y1="360" y2="396.0"/>
    <line class="line_deg" transform="rotate(262)" x1="0" x2="0" y1="360" y2="396.0"/>
    <line class="line_deg" transform="rotate(263)" x1="0" x2="0" y1="360" y2="396.0"/>
    <line class="line_deg" transform="rotate(264)" x1="0" x2="0" y1="360" y2="396.0"/>
    <line class="line_deg" transform="rotate(265)" x1="0" x2="0" y1="360" y2="396.0"/>
    <line class="line_deg" transform="rotate(266)" x1="0" x2="0" y1="360" y2="396.0"/>
    <line class="line_deg" transform="rotate(267)" x1="0" x2="0" y1="360" y2="396.0"/>
    <line class="line_deg" transform="rotate(268)" x1="0" x2="0" y1="360" y2="396.0"/>
    <line class="line_deg" transform="rotate(269)" x1="0" x2="0" y1="360" y2="396.0"/>
    <line class="line_deg_thick" transform="rotate(270)" x1="0" x2="0" y1="360" y2="396.0"/>
    <line class="line_deg" transform="rotate(271)" x1="0" x2="0" y1="360" y2="396.0"/>
    <line class="line_deg" transform="rotate(272)" x1="0" x2="0" y1="360" y2="396.0"/>
    <line class="line_deg" transform="rotate(273)" x1="0" x2="0" y1="360" y2="396.0"/>
    <line class="line_deg" transform="rotate(274)" x1="0" x2="0" y1="360" y2="396.0"/>
    <line class="line_deg" transform="rotate(275)" x1="0" x2="0" y1="360" y2="396.0"/>
    <line class="line_deg" transform="rotate(276)" x1="0" x2="0" y1="360" y2="396.0"/>
    <line class="line_deg" transform="rotate(277)" x1="0" x2="0" y1="360" y2="396.0"/>
    <line class="line_deg" transform="rotate(278)" x1="0" x2="0" y1="360" y2="396.0"/>
    <line class="line_deg" transform="rotate(279)" x1="0" x2="0" y1="360" y2="396.0"/>
    <line class="line_deg_thick" transform="rotate(280)" x1="0" x2="0" y1="360" y2="396.0"/>
    <line class="line_deg" transform="rotate(281)" x1="0" x2="0" y1="360" y2="396.0"/>
    <line class="line_deg" transform="rotate(282)" x1="0" x2="0" y1="360" y2="396.0"/>
    <line class="line_deg" transform="rotate(283)" x1="0" x2="0" y1="360" y2="396.0"/>
    <line class="line_deg" transform="rotate(284)" x1="0" x2="0" y1="360" y2="396.0"/>
    <line class="line_deg" transform="rotate(285)" x1="0" x2="0" y1="360" y2="396.0"/>
    <line class="line_deg" transform="rotate(286)" x1="0" x2="0" y1="360" y2="396.0"/>
    <line class="line_deg" transform="rotate(287)" x1="0" x2="0" y1="360" y2="396.0"/>
    <line class="line_deg" transform="rotate(288)" x1="0" x2="0" y1="360" y2="396.0"/>
    <line class="line_deg" transform="rotate(289)" x1="0" x2="0" y1="360" y2="396.0"/>
    <line class="line_deg_thick" transform="rotate(290)" x1="0" x2="0" y1="360" y2="396.0"/>
    <line class="line_deg" transform="rotate(291)" x1="0" x2="0" y1="360" y2="396.0"/>
    <line class="line_deg" transform="rotate(292)" x1="0" x2="0" y1="360" y2="396.0"/>
    <line class="line_deg" transform="rotate(293)" x1="0" x2="0" y1="360" y2="396.0"/>
    <line class="line_deg" transform="rotate(294)" x1="0" x2="0" y1="360" y2="396.0"/>
    <line class="line_deg" transform="rotate(295)" x1="0" x2="0" y1="360" y2="396.0"/>
    <line class="line_deg" transform="rotate(296)" x1="0" x2="0" y1="360" y2="396.0"/>
    <line class="line_deg" transform="rotate(297)" x1="0" x2="0" y1="360" y2="396.0"/>
    <line class="line_deg" transform="rotate(298)" x1="0" x2="0" y1="360" y2="396.0"/>
    <line class="line_deg" transform="rotate(299)" x1="0" x2="0" y1="360" y2="396.0"/>
    <line class="line_deg_thick" transform="rotate(300)" x1="0" x2="0" y1="360" y2="396.0"/>
    <line class="line_deg" transform="rotate(301)" x1="0" x2="0" y1="360" y2="396.0"/>
    <line class="line_deg" transform="rotate(302)" x1="0" x2="0" y1="360" y2="396.0"/>
    <line class="line_deg" transform="rotate(303)" x1="0" x2="0" y1="360" y2="396.0"/>
    <line class="line_deg" transform="rotate(304)" x1="0" x2="0" y1="360" y2="396.0"/>
    <line class="line_deg" transform="rotate(305)" x1="0" x2="0" y1="360" y2="396.0"/>
    <line class="line_deg" transform="rotate(306)" x1="0" x2="0" y1="360" y2="396.0"/>
    <line class="line_deg" transform="rotate(307)" x1="0" x2="0" y1="360" y2="396.0"/>
    <line class="line_deg" transform="rotate(308)" x1="0" x2="0" y1="360" y2="396.0"/>
    <line class="line_deg" transform="rotate(309)" x1="0" x2="0" y1="360" y2="396.0"/>
    <line class="line_deg_thick" transform="rotate(310)" x1="0" x2="0" y1="360" y2="396.0"/>
    <line class="line_deg" transform="rotate(311)" x1="0" x2="0" y1="360" y2="396.0"/>
    <line class="line_deg" transform="rotate(312)" x1="0" x2="0" y1="360" y2="396.0"/>
    <line class="line_deg" transform="rotate(313)" x1="0" x2="0" y1="360" y2="396.0"/>
    <line class="line_deg" transform="rotate(314)" x1="0" x2="0" y1="360" y2="396.0"/>
    <line class="line_deg" transform="rotate(315)" x1="0" x2="0" y1="360" y2="396.0"/>
    <line class="line_deg" transform="rotate(316)" x1="0" x2="0" y1="360" y2="396.0"/>
    <line class="line_deg" transform="rotate(317)" x1="0" x2="0" y1="360" y2="396.0"/>
    <line class="line_deg" transform="rotate(318)" x1="0" x2="0" y1="360" y2="396.0"/>
    <line class="line_deg" transform="rotate(319)" x1="0" x2="0" y1="360" y2="396.0"/>
    <line class="line_deg_thick" transform="rotate(320)" x1="0" x2="0" y1="360" y2="396.0"/>
    <line class="line_deg" transform="rotate(321)" x1="0" x2="0" y1="360" y2="396.0"/>
    <line class="line_deg" transform="rotate(322)" x1="0" x2="0" y1="360" y2="396.0"/>
    <line class="line_deg" transform="rotate(323)" x1="0" x2="0" y1="360" y2="396.0"/>
    <line class="line_deg" transform="rotate(324)" x1="0" x2="0" y1="360" y2="396.0"/>
    <line class="line_deg" transform="rotate(325)" x1="0" x2="0" y1="360" y2="396.0"/>
    <line class="line_deg" transform="rotate(326)" x1="0" x2="0" y1="360" y2="396.0"/>
    <line class="line_deg" transform="rotate(327)" x1="0" x2="0" y1="360" y2="396.0"/>
    <line class="line_deg" transform="rotate(328)" x1="0" x2="0" y1="360" y2="396.0"/>
    <line class="line_deg" transform="rotate(329)" x1="0" x2="0" y1="360" y2="396.0"/>
    <line class="line_deg_thick" transform="rotate(330)" x1="0" x2="0" y1="360" y2="396.0"/>
    <line class="line_deg" transform="rotate(331)" x1="0" x2="0" y1="360" y2="396.0"/>
    <line class="line_deg" transform="rotate(332)" x1="0" x2="0" y1="360" y2="396.0"/>
    <line class="line_deg" transform="rotate(333)" x1="0" x2="0" y1="360" y2="396.0"/>
    <line class="line_deg" transform="rotate(334)" x1="0" x2="0" y1="360" y2="396.0"/>
    <line class="line_deg" transform="rotate(335)" x1="0" x2="0" y1="360" y2="396.0"/>
    <line class="line_deg" transform="rotate(336)" x1="0" x2="0" y1="360" y2="396.0"/>
    <line class="line_deg" transform="rotate(337)" x1="0" x2="0" y1="360" y2="396.0"/>
    <line class="line_deg" transform="rotate(338)" x1="0" x2="0" y1="360" y2="396.0"/>
    <line class="line_deg" transform="rotate(339)" x1="0" x2="0" y1="360" y2="396.0"/>
    <line class="line_deg_thick" transform="rotate(340)" x1="0" x2="0" y1="360" y2="396.0"/>
    <line class="line_deg" transform="rotate(341)" x1="0" x2="0" y1="360" y2="396.0"/>
    <line class="line_deg" transform="rotate(342)" x1="0" x2="0" y1="360" y2="396.0"/>
    <line class="line_deg" transform="rotate(343)" x1="0" x2="0" y1="360" y2="396.0"/>
    <line class="line_deg" transform="rotate(344)" x1="0" x2="0" y1="360" y2="396.0"/>
    <line class="line_deg" transform="rotate(345)" x1="0" x2="0" y1="360" y2="396.0"/>
    <line class="line_deg" transform="rotate(346)" x1="0" x2="0" y1="360" y2="396.0"/>
    <line class="line_deg" transform="rotate(347)" x1="0" x2="0" y1="360" y2="396.0"/>
    <line class="line_deg" transform="rotate(348)" x1="0" x2="0" y1="360" y2="396.0"/>
    <line class="line_deg" transform="rotate(349)" x1="0" x2="0" y1="360" y2="396.0"/>
    <line class="line_deg_thick" transform="rotate(350)" x1="0" x2="0" y1="360" y2="396.0"/>
    <line class="line_deg" transform="rotate(351)" x1="0" x2="0" y1="360" y2="396.0"/>
    <line class="line_deg" transform="rotate(352)" x1="0" x2="0" y1="360" y2="396.0"/>
    <line class="line_deg" transform="rotate(353)" x1="0" x2="0" y1="360" y2="396.0"/>
    <line class="line_deg" transform="rotate(354)" x1="0" x2="0" y1="360" y2="396.0"/>
    <line class="line_deg" transform="rotate(355)" x1="0" x2="0" y1="360" y2="396.0"/>
    <line class="line_deg" transform="rotate(356)" x1="0" x2="0" y1="360" y2="396.0"/>
    <line class="line_deg" transform="rotate(357)" x1="0" x2="0" y1="360" y2="396.0"/>
    <line class="line_deg" transform="rotate(358)" x1="0" x2="0" y1="360" y2="396.0"/>
    <line class="line_deg" transform="rotate(359)" x1="0" x2="0" y1="360" y2="396.0"/>
    <circle class="circle2" cx="0" cy="0" r="396.0"/>
  </g>
</svg>
